<svg xmlns="http://www.w3.org/2000/svg" width="auto" height="auto" viewBox="0 0 1440 949" fill="none">
    <path d="M1439.46 913.269L1439.99 912.784C1361.84 839.467 1295.35 760.688 1231.05 684.504C1204.59 653.16 1177.24 620.747 1149.67 589.452C1149.1 588.439 1148.54 587.418 1147.98 586.404C1184.85 623.781 1221.32 663.018 1256.63 700.992C1314.01 762.722 1373.35 826.548 1439.45 888.271L1439.98 887.785C1373.9 826.076 1314.57 762.257 1257.2 700.541C1221.3 661.928 1184.19 622.004 1146.68 584.058C1146.06 582.926 1145.44 581.802 1144.81 580.677C1195.55 626.572 1243.53 673.862 1294.28 723.908C1340.6 769.574 1388.49 816.801 1439.46 863.675L1439.99 863.182C1389.04 816.315 1341.14 769.102 1294.83 723.436C1243.53 672.862 1195.09 625.086 1143.73 578.733C1143.06 577.519 1142.38 576.304 1141.71 575.082C1212.19 631.945 1278.66 692.842 1349.01 757.286C1378.27 784.09 1408.52 811.81 1439.47 839.578L1439.99 839.079C1409.05 811.31 1378.79 783.597 1349.54 756.793C1278.71 691.898 1211.8 630.605 1140.77 573.395C1140.13 572.236 1139.48 571.076 1138.83 569.917L1138.61 569.528C1237.82 640.894 1331.39 722.2 1430.42 808.255L1439.48 816.121L1439.98 815.614L1430.93 807.749C1331.46 721.305 1237.5 639.651 1137.78 568.049C1137.15 566.925 1136.52 565.807 1135.89 564.682L1135.54 564.051C1246.8 635.305 1351.59 719.909 1439.48 793.33L1439.98 792.816C1351.77 719.125 1246.53 634.16 1134.8 562.725C1134.02 561.357 1133.25 559.99 1132.47 558.615C1228.95 613.479 1326.55 681.068 1439.49 771.247L1439.98 770.719C1326.59 680.186 1228.66 612.403 1131.79 557.407L1131.77 557.372C1130.98 555.984 1130.18 554.589 1129.39 553.2C1231.31 604.51 1332.75 668.85 1439.49 749.872L1439.96 749.337C1332.85 668.023 1231.05 603.503 1128.75 552.089C1127.94 550.659 1127.13 549.236 1126.31 547.813C1233.1 595.193 1335.56 654.542 1439.49 729.219L1439.95 728.67C1335.68 653.75 1232.89 594.249 1125.72 546.779C1124.89 545.328 1124.05 543.884 1123.22 542.44C1233.85 585.467 1337.31 640.04 1439.5 709.26L1439.94 708.698C1337.45 639.262 1233.66 584.558 1122.66 541.461C1121.82 540.003 1120.97 538.545 1120.13 537.094C1233.82 575.561 1338.3 625.572 1439.51 689.975L1439.93 689.405C1338.44 624.822 1233.65 574.7 1119.6 536.178C1118.74 534.706 1117.89 533.234 1117.03 531.77C1233.31 565.682 1338.81 611.334 1439.52 671.328L1439.93 670.745C1338.95 610.591 1233.15 564.842 1116.51 530.895C1115.71 529.513 1114.89 528.132 1114.08 526.75L1113.91 526.473C1171.29 540.718 1227.13 558.261 1279.89 578.643C1335 599.928 1388.71 625.045 1439.54 653.299L1439.93 652.702C1389.08 624.427 1335.33 599.296 1280.18 577.998C1227.18 557.525 1171.07 539.906 1113.43 525.626C1112.82 524.585 1112.2 523.543 1111.58 522.502L1110.79 521.176C1168.94 533.269 1225.37 548.695 1278.53 567.036C1334.37 586.3 1388.54 609.452 1439.55 635.84L1439.92 635.236C1388.88 608.828 1334.67 585.662 1278.79 566.383C1225.4 547.966 1168.73 532.478 1110.31 520.364C1109.43 518.878 1108.54 517.385 1107.65 515.9C1166.51 525.924 1223.53 539.323 1277.11 555.741C1333.63 573.055 1388.29 594.305 1439.55 618.915L1439.9 618.297C1388.59 593.673 1333.89 572.402 1277.34 555.081C1223.54 538.601 1166.29 525.154 1107.17 515.115L1104.46 510.624C1164.02 518.67 1221.61 530.145 1275.66 544.731C1332.83 560.163 1387.97 579.594 1439.56 602.49L1439.88 601.865C1388.26 578.956 1333.08 559.504 1275.87 544.064C1221.62 529.423 1163.79 517.913 1104 509.86L1101.29 505.369C1161.48 511.526 1219.65 521.155 1274.16 533.991C1331.97 547.605 1387.62 565.286 1439.57 586.536L1439.87 585.898C1387.88 564.634 1332.19 546.945 1274.35 533.318C1219.63 520.426 1161.26 510.777 1100.84 504.619L1100.08 503.362C1099.42 502.286 1098.77 501.203 1098.11 500.127C1158.92 504.459 1217.64 512.325 1272.66 523.502C1331.07 535.366 1387.24 551.36 1439.58 571.028L1439.87 570.382C1387.48 550.701 1331.28 534.699 1272.82 522.821C1217.62 511.61 1158.69 503.723 1097.67 499.398C1051.95 424.826 1007.45 365.859 957.638 313.841C896.971 250.487 829.405 198.816 751.072 155.886C565.771 54.2874 320.117 2.9848 0.0899775 -1V-0.305783C319.975 3.67208 565.501 54.9539 750.69 156.455C828.955 199.351 896.461 250.973 957.076 314.272C1006.76 366.157 1051.15 424.971 1096.76 499.308C1094.25 499.128 1091.76 498.961 1089.25 498.794C1040.68 428.859 993.937 373.488 942.162 324.553C879.718 265.531 811.222 217.442 732.754 177.539C548.3 83.7361 308.645 36.446 0.0899775 32.975V33.6692C308.51 37.1403 548.053 84.4025 732.394 178.15C810.795 218.018 879.238 266.072 941.63 325.039C993.262 373.842 1039.89 429.053 1088.32 498.739C1085.82 498.579 1083.31 498.419 1080.81 498.267C1030.24 433.843 979.878 380.521 926.828 335.265C862.697 280.547 793.302 236.006 714.669 199.108C531.19 112.99 297.451 69.7337 0.0899775 66.8527V67.547C297.331 70.4279 530.957 113.664 714.331 199.719C792.897 236.589 862.239 281.095 926.318 335.764C979.203 380.889 1029.43 434.031 1079.84 498.204C1077.33 498.052 1074.83 497.913 1072.32 497.781C1019.26 437.877 966.688 388.206 911.622 345.921C845.901 295.465 775.644 254.444 696.831 220.525C514.476 142.043 286.571 102.827 0.0899775 100.647V101.341C286.458 103.521 514.259 142.717 696.516 221.156C775.269 255.055 845.474 296.041 911.142 346.455C966.021 388.594 1018.42 438.078 1071.3 497.725C1068.8 497.579 1066.29 497.448 1063.78 497.33C1008.39 441.91 953.687 395.849 896.543 356.529C829.353 310.294 758.27 272.757 679.24 241.795C498.183 170.853 276.029 135.691 0.0899775 134.31V135.004C275.924 136.385 497.988 171.527 678.955 242.434C757.933 273.382 828.963 310.884 896.101 357.084C953.019 396.252 1007.52 442.118 1062.71 497.274C1060.22 497.149 1057.72 497.031 1055.23 496.92C997.693 445.916 940.917 403.444 881.667 367.074C813.127 325.004 741.265 290.925 661.972 262.886C482.399 199.4 265.891 168.306 0.0824794 167.84V168.535C265.794 169 482.212 200.08 661.702 263.545C740.942 291.564 812.752 325.622 881.247 367.664C940.242 403.874 996.786 446.152 1054.09 496.885C1051.6 496.774 1049.11 496.67 1046.61 496.58C921.407 398.39 793.789 330.78 644.996 283.809C469 228.251 260.62 201.218 8.11297 201.218C5.45114 201.218 2.74431 201.218 0.0749813 201.225V201.92C2.76681 201.92 5.43614 201.913 8.11297 201.913C260.515 201.913 468.843 228.932 644.749 284.469C793.152 331.322 920.485 398.716 1045.38 496.538C1042.91 496.441 1040.43 496.351 1037.96 496.26C909.695 407.484 779.543 346.546 628.365 304.497C452.527 255.569 247.026 232.646 0.0824794 234.402V235.096C8.87028 235.034 17.5681 235.006 26.2434 235.006C261.482 235.006 458.638 257.998 628.163 305.156C778.913 347.087 908.743 407.81 1036.65 496.212C1034.19 496.129 1031.73 496.045 1029.28 495.976C966.381 457.683 903.854 425.721 838.118 398.251C766.398 368.282 692.474 344.303 612.117 324.935C438.618 283.115 238.418 264.288 0.0824794 267.377V268.071C238.358 264.989 438.498 283.802 611.93 325.601C692.242 344.956 766.128 368.927 837.811 398.883C903.149 426.186 965.316 457.94 1027.84 495.934C1025.41 495.865 1022.98 495.802 1020.55 495.74C956.221 461.452 891.947 432.899 824.059 408.435C751.605 382.333 677.088 361.617 596.266 345.102C425.519 310.231 230.5 295.507 0.0749813 300.096L0.0899775 300.79C230.47 296.201 425.414 310.918 596.101 345.789C676.886 362.291 751.365 382.999 823.782 409.088C891.212 433.378 955.074 461.723 1018.97 495.705C1016.57 495.65 1014.17 495.594 1011.77 495.552C879.38 434.17 738.415 391.462 580.835 364.991C413.364 336.854 223.399 326.233 0.0749813 332.516L0.0974756 333.21C223.369 326.927 413.282 337.549 580.7 365.671C737.651 392.038 878.098 434.524 1010.02 495.525C1007.67 495.483 1005.33 495.441 1002.98 495.407C774.091 403.846 513.652 361.173 174.099 361.173C118.305 361.173 60.3374 362.325 0.059985 364.602L0.0899775 365.296C426.193 349.198 735.004 389.323 1001.02 495.386C998.728 495.358 996.441 495.323 994.146 495.309C732.484 405.964 425.893 375.425 0.0674831 396.293L0.104974 396.987C85.3137 392.815 165.701 390.698 241.95 390.698C545.714 390.698 783.179 424.319 991.92 495.296C989.708 495.275 987.488 495.254 985.269 495.247C850.91 456.648 704.434 432.844 537.473 422.472C384.279 412.961 208.485 414.614 0.0524869 427.526L0.104974 428.22C208.508 415.308 384.264 413.656 537.428 423.166C703.347 433.469 849.02 457.051 982.682 495.24C980.56 495.233 978.438 495.219 976.308 495.219C841.829 463.334 693.907 445.534 524.081 440.793C375.679 436.648 209.16 442.195 0.0449888 458.245L0.104974 458.939C209.19 442.896 375.686 437.349 524.059 441.487C692.632 446.194 839.618 463.778 973.287 495.226C971.337 495.226 969.388 495.233 967.446 495.247C832.922 469.623 683.724 457.634 511.327 458.606C369.238 459.404 211.552 468.582 0.0449888 488.36L0.11997 489.054C211.597 469.276 369.26 460.106 511.327 459.307C682.187 458.349 830.237 470.123 963.802 495.282C962.017 495.296 960.24 495.302 958.455 495.323C823.917 475.545 673.669 469.193 499.143 475.906C330.465 482.39 152.189 500.738 0.0449888 517.823L0.134966 518.51C206.671 495.316 420.63 474.046 628.103 474.046C739.308 474.046 848.668 480.169 953.964 495.379C952.427 495.4 950.897 495.413 949.36 495.434C658.575 464.507 347.381 500.273 0.0299925 546.529L0.134966 547.216C345.146 501.273 654.466 465.687 943.519 495.538C942.454 495.559 941.39 495.573 940.325 495.594C805.531 486.382 653.859 490.679 476.648 508.722C316.248 525.043 148.245 551.256 0.0224944 574.388L0.149962 575.075C148.365 551.951 316.353 525.737 476.738 509.409C650.417 491.727 799.548 487.263 932.294 495.768C931.987 495.775 931.672 495.781 931.365 495.788C636.471 486.153 325.816 542.37 25.3962 596.741L0.0149963 601.323L0.157461 602.004L25.5386 597.415C303.067 547.188 589.278 495.393 863.732 495.393C881.232 495.393 898.71 495.608 916.121 496.045C787.251 496.559 643.872 509.464 478.043 535.505C329.385 558.844 182.354 589.39 40.16 618.929C26.7233 621.719 13.3392 624.503 0.0149963 627.266L0.179955 627.946C13.5041 625.183 26.8883 622.407 40.3249 619.609C182.504 590.07 329.528 559.524 478.17 536.192C635.729 511.457 773.019 498.565 896.836 496.906C609.155 508.52 307.933 579.532 41.2697 642.393C27.4281 645.656 13.6691 648.898 0 652.112L0.187453 652.786C13.8565 649.571 27.6156 646.329 41.4571 643.066C315.971 578.352 627.106 504.994 922.352 496.719C928.68 496.712 934.379 496.733 939.763 496.774H939.86C945.731 496.996 951.182 497.219 956.513 497.468C961.897 497.878 967.506 498.336 973.189 498.836C978.715 499.496 983.837 500.127 988.845 500.78C993.659 501.571 998.615 502.411 1004.01 503.355C1008.99 504.418 1013.54 505.41 1017.92 506.382C1022.85 507.68 1027.63 508.972 1032.14 510.214C1036.19 511.505 1040.43 512.88 1045.11 514.421C1049.13 515.942 1053.33 517.559 1057.6 519.218C1061.99 521.155 1066.38 523.134 1069.71 524.647C1073.39 526.542 1077.22 528.528 1081.07 530.548C1084.59 532.617 1088.24 534.783 1091.91 536.997C1095.32 539.288 1098.75 541.628 1101.96 543.821C1105.22 546.307 1108.46 548.806 1111.69 551.312C1114.72 553.943 1117.75 556.588 1120.77 559.233C1123.57 561.989 1126.37 564.752 1129.17 567.529C1131.86 570.521 1134.56 573.513 1137.23 576.519C1139.69 579.587 1142.14 582.67 1144.57 585.759C1146.81 588.938 1149.04 592.118 1151.25 595.297L1151.46 595.589C1153.61 599.039 1155.75 602.483 1157.85 605.94C1167.41 623.483 1176.94 641.261 1186.15 658.457C1249.11 775.905 1308.58 886.841 1400.19 977.714L1400.74 977.242C1309.2 886.445 1249.76 775.558 1186.82 658.152C1179.7 644.885 1172.41 631.265 1165.05 617.679C1173.99 632.271 1182.87 646.926 1191.52 661.199C1261.66 776.904 1327.9 886.195 1427.06 977.727L1427.59 977.235C1328.5 885.772 1262.29 776.523 1192.18 660.859C1181.4 643.066 1170.25 624.677 1159.09 606.558C1172.88 626.433 1186.59 646.579 1199.9 666.114C1269.79 768.727 1342.04 874.838 1439.48 963.822L1440 963.329C1342.63 874.4 1270.39 768.324 1200.53 665.747C1185.88 644.24 1170.73 621.997 1155.55 600.178C1155.29 599.699 1155.03 599.213 1154.76 598.727C1174.22 623.621 1193.57 649.058 1212.31 673.695C1280.54 763.423 1351.11 856.205 1439.47 938.532L1440 938.039C1351.69 855.754 1281.14 762.999 1212.93 673.293C1193.3 647.482 1173 620.789 1152.6 594.77C1152.16 593.992 1151.73 593.208 1151.31 592.43C1178.12 622.934 1204.72 654.445 1230.47 684.949C1294.78 761.153 1361.29 839.946 1439.48 913.29L1439.46 913.269ZM948.513 496.163C948.43 496.163 948.355 496.149 948.273 496.149C948.625 496.149 948.978 496.135 949.323 496.129C949.488 496.149 949.653 496.163 949.825 496.184C949.39 496.184 948.948 496.17 948.513 496.163ZM1140.85 575.061C1141.25 575.776 1141.65 576.498 1142.05 577.213C1141.12 576.38 1140.2 575.547 1139.28 574.728C1138.6 573.645 1137.91 572.562 1137.22 571.472C1138.2 572.256 1139.18 573.048 1140.16 573.832L1140.85 575.061ZM1138.16 570.229C1138.52 570.875 1138.88 571.521 1139.24 572.159C1138.17 571.305 1137.11 570.444 1136.04 569.597C1135.31 568.424 1134.56 567.258 1133.81 566.085C1134.94 566.89 1136.06 567.688 1137.19 568.494L1138.16 570.229ZM1135.22 564.995C1135.61 565.675 1135.99 566.356 1136.37 567.036C1135.18 566.182 1133.99 565.328 1132.8 564.481L1131.95 563.148C1131.45 562.364 1130.96 561.579 1130.45 560.802C1131.22 561.288 1131.98 561.774 1132.75 562.26L1134.22 563.197L1135.23 565.002L1135.22 564.995ZM1002.92 498.329C1004.94 498.413 1006.97 498.496 1008.99 498.586C1010.34 499.128 1011.69 499.683 1013.05 500.238C1011.07 500.086 1009.08 499.926 1007.1 499.78C1005.71 499.294 1004.31 498.808 1002.92 498.329ZM1004.42 499.593C1002.55 499.454 1000.68 499.322 998.81 499.19C997.468 498.794 996.126 498.399 994.784 498.01C996.688 498.079 998.593 498.142 1000.5 498.225C1001.81 498.676 1003.11 499.135 1004.43 499.593H1004.42ZM1120.74 551.187L1120.49 550.847C1119.7 549.75 1118.89 548.653 1118.09 547.556L1118.44 547.73C1119.79 548.389 1121.12 549.056 1122.45 549.722L1123.67 551.596C1124.08 552.235 1124.49 552.881 1124.91 553.519C1123.52 552.742 1122.13 551.957 1120.74 551.187ZM1125.63 554.741V554.894H1125.8C1126.56 556.081 1127.32 557.275 1128.09 558.462C1126.82 557.657 1125.54 556.852 1124.28 556.053L1122.94 554.214C1122.54 553.658 1122.14 553.103 1121.73 552.555C1123.04 553.283 1124.34 554.005 1125.64 554.741H1125.63ZM1025.39 501.946C1027.45 502.12 1029.52 502.293 1031.58 502.474L1033.4 503.466C1034.1 503.855 1034.82 504.237 1035.52 504.626C1033.51 504.376 1031.5 504.126 1029.49 503.89C1028.12 503.237 1026.76 502.585 1025.38 501.939L1025.39 501.946ZM1027.32 503.64C1025.39 503.411 1023.46 503.182 1021.53 502.967C1020.17 502.397 1018.82 501.842 1017.46 501.287C1019.44 501.446 1021.42 501.599 1023.4 501.773C1024.71 502.397 1026.01 503.015 1027.33 503.64H1027.32ZM1103.72 534.248L1103.69 534.234L1102.5 532.818C1101.89 532.096 1101.29 531.374 1100.69 530.652C1102.45 531.221 1104.21 531.797 1105.97 532.374C1106.91 533.63 1107.85 534.887 1108.79 536.15C1107.1 535.511 1105.41 534.88 1103.72 534.248ZM1109.56 537.198L1112.29 540.899C1110.7 540.218 1109.13 539.531 1107.55 538.865C1106.57 537.691 1105.59 536.518 1104.61 535.338C1106.26 535.956 1107.91 536.574 1109.56 537.205V537.198ZM1054.36 507.757C1056.46 508.034 1058.55 508.312 1060.64 508.611C1061.85 509.576 1063.05 510.547 1064.24 511.519C1062.21 511.158 1060.18 510.804 1058.16 510.45C1056.9 509.548 1055.63 508.645 1054.37 507.75L1054.36 507.757ZM1056.54 510.186C1054.56 509.846 1052.57 509.513 1050.59 509.18C1049.3 508.368 1048.01 507.555 1046.72 506.743C1048.76 507.007 1050.8 507.278 1052.85 507.555C1054.09 508.43 1055.32 509.305 1056.55 510.186H1056.54ZM1084.86 518.823L1084.81 518.767C1083.71 517.628 1082.62 516.497 1081.51 515.358L1082.56 515.56C1084.29 515.886 1086.01 516.212 1087.72 516.545C1088.77 517.76 1089.82 518.982 1090.86 520.204C1088.86 519.739 1086.86 519.281 1084.85 518.829L1084.86 518.823ZM1091.63 521.086C1092.66 522.287 1093.68 523.495 1094.7 524.696C1092.84 524.189 1090.98 523.675 1089.11 523.175L1089.03 523.154C1087.94 522.016 1086.85 520.877 1085.75 519.739C1087.72 520.183 1089.67 520.634 1091.64 521.086H1091.63ZM1083.58 518.538C1081.6 518.087 1079.63 517.642 1077.65 517.205C1076.49 516.129 1075.34 515.067 1074.17 514.012C1076.21 514.386 1078.26 514.754 1080.29 515.136C1081.39 516.268 1082.49 517.406 1083.58 518.545L1083.58 518.538ZM1082.71 514.879L1080.67 514.497C1079.54 513.331 1078.42 512.172 1077.29 511.013C1079.46 511.339 1081.63 511.672 1083.81 512.012C1084.87 513.234 1085.93 514.463 1087 515.698C1085.57 515.428 1084.15 515.157 1082.71 514.886V514.879ZM1079.45 514.268C1077.37 513.887 1075.28 513.505 1073.2 513.123C1072.02 512.04 1070.84 510.964 1069.66 509.895C1071.81 510.2 1073.96 510.513 1076.1 510.832C1077.22 511.978 1078.34 513.123 1079.45 514.268ZM1071.87 512.887C1069.81 512.512 1067.76 512.144 1065.69 511.783C1064.47 510.79 1063.25 509.798 1062.02 508.812C1064.15 509.103 1066.27 509.402 1068.39 509.714C1069.56 510.77 1070.72 511.825 1071.88 512.894L1071.87 512.887ZM1065.36 512.429C1066.53 513.373 1067.7 514.324 1068.87 515.275C1066.96 514.865 1065.06 514.456 1063.14 514.053C1061.91 513.165 1060.68 512.283 1059.46 511.401C1061.42 511.741 1063.39 512.082 1065.36 512.436V512.429ZM1066.81 512.686C1068.82 513.04 1070.83 513.394 1072.84 513.762C1073.98 514.796 1075.11 515.844 1076.25 516.893C1074.46 516.497 1072.67 516.094 1070.88 515.705L1070.42 515.608C1069.22 514.629 1068.02 513.658 1066.82 512.693L1066.81 512.686ZM1077.27 517.83C1078.38 518.85 1079.49 519.871 1080.6 520.898C1078.77 520.412 1076.94 519.933 1075.11 519.454C1073.95 518.496 1072.77 517.538 1071.6 516.58C1073.49 516.997 1075.38 517.406 1077.27 517.83ZM1078.67 518.149C1080.6 518.58 1082.53 519.01 1084.45 519.447C1085.53 520.558 1086.6 521.676 1087.66 522.793C1085.8 522.294 1083.94 521.794 1082.08 521.294C1080.94 520.239 1079.81 519.197 1078.67 518.149ZM1088.6 523.765L1088.74 523.911C1089.74 524.959 1090.74 526.015 1091.74 527.063C1089.99 526.507 1088.25 525.959 1086.5 525.411L1085.14 524.14C1084.49 523.529 1083.83 522.918 1083.18 522.307C1084.99 522.793 1086.8 523.272 1088.6 523.765ZM1089.96 524.133C1091.8 524.633 1093.65 525.133 1095.5 525.64C1096.51 526.827 1097.52 528.028 1098.53 529.222C1096.74 528.646 1094.97 528.076 1093.19 527.514C1092.12 526.389 1091.04 525.258 1089.96 524.133H1089.96ZM1099.38 530.228C1100.22 531.228 1101.06 532.235 1101.91 533.241L1102.31 533.72C1100.64 533.096 1098.97 532.478 1097.3 531.86C1096.26 530.756 1095.22 529.659 1094.18 528.562C1095.91 529.111 1097.64 529.666 1099.38 530.228ZM1099.83 529.645C1098.81 528.424 1097.78 527.209 1096.74 525.994C1098.61 526.514 1100.48 527.035 1102.35 527.563C1103.32 528.84 1104.28 530.131 1105.24 531.416C1103.44 530.826 1101.63 530.235 1099.83 529.652V529.645ZM1095.94 525.043C1094.9 523.821 1093.86 522.592 1092.82 521.37C1094.79 521.828 1096.77 522.294 1098.75 522.766C1099.73 524.057 1100.69 525.348 1101.66 526.639C1099.76 526.105 1097.85 525.57 1095.94 525.043ZM1092.06 520.475C1091 519.239 1089.93 518.003 1088.88 516.768C1090.96 517.17 1093.04 517.566 1095.12 517.982C1096.11 519.288 1097.1 520.586 1098.09 521.891C1096.08 521.412 1094.07 520.94 1092.06 520.475ZM1088.14 515.914C1087.07 514.664 1086 513.421 1084.92 512.179C1087.11 512.512 1089.29 512.852 1091.46 513.206C1092.47 514.518 1093.47 515.83 1094.47 517.149C1092.36 516.733 1090.26 516.316 1088.14 515.914H1088.14ZM1084.21 511.367C1083.13 510.11 1082.05 508.861 1080.95 507.604C1083.24 507.875 1085.52 508.152 1087.81 508.437L1088.74 509.652C1089.45 510.568 1090.15 511.485 1090.85 512.401C1088.64 512.047 1086.43 511.7 1084.21 511.36V511.367ZM1083.11 511.193C1080.91 510.853 1078.7 510.513 1076.48 510.18C1075.34 509.013 1074.2 507.84 1073.05 506.674C1075.33 506.931 1077.6 507.194 1079.88 507.472C1080.96 508.715 1082.03 509.95 1083.11 511.193ZM1075.3 510.013C1073.12 509.694 1070.93 509.367 1068.75 509.062C1067.55 507.972 1066.35 506.889 1065.15 505.799C1067.4 506.042 1069.65 506.292 1071.91 506.549C1073.04 507.701 1074.17 508.86 1075.3 510.013ZM1067.47 508.874C1065.3 508.562 1063.13 508.25 1060.96 507.958C1059.71 506.951 1058.46 505.952 1057.2 504.945C1059.44 505.181 1061.67 505.417 1063.92 505.66C1065.11 506.736 1066.29 507.805 1067.47 508.881V508.874ZM1059.58 507.771C1057.44 507.472 1055.29 507.174 1053.15 506.896C1051.86 505.973 1050.55 505.056 1049.26 504.147C1051.47 504.362 1053.68 504.577 1055.89 504.813C1057.12 505.799 1058.35 506.785 1059.58 507.778V507.771ZM1051.63 506.688C1049.52 506.403 1047.41 506.118 1045.3 505.855C1043.97 505.021 1042.64 504.195 1041.3 503.362C1043.48 503.564 1045.64 503.772 1047.81 503.994C1049.09 504.89 1050.35 505.785 1051.63 506.688ZM1043.61 505.639C1041.55 505.376 1039.49 505.112 1037.42 504.855C1036.2 504.188 1034.99 503.529 1033.78 502.862L1033.35 502.626C1035.47 502.814 1037.59 503.008 1039.71 503.21C1041.02 504.022 1042.31 504.827 1043.61 505.639ZM1037.17 505.528C1038.42 506.216 1039.67 506.903 1040.91 507.597C1039.05 507.298 1037.2 507 1035.34 506.708L1034.29 506.202C1033.35 505.743 1032.39 505.285 1031.44 504.834C1033.35 505.063 1035.26 505.292 1037.17 505.535V505.528ZM1039.06 505.771C1041.05 506.014 1043.03 506.264 1045.02 506.521C1046.27 507.305 1047.53 508.09 1048.78 508.881C1046.84 508.562 1044.91 508.243 1042.97 507.93C1041.67 507.208 1040.36 506.493 1039.06 505.771ZM1050.3 509.832L1051.01 510.284C1051.97 510.895 1052.93 511.499 1053.88 512.109C1052.09 511.742 1050.31 511.374 1048.51 511.006C1047.26 510.304 1046.01 509.61 1044.76 508.923C1046.6 509.221 1048.45 509.527 1050.29 509.832H1050.3ZM1052.11 510.138C1054.02 510.457 1055.93 510.783 1057.84 511.11C1059.03 511.964 1060.22 512.824 1061.41 513.685C1059.58 513.297 1057.75 512.915 1055.91 512.533L1055.85 512.519C1054.6 511.721 1053.36 510.936 1052.11 510.145L1052.11 510.138ZM1062.81 514.685C1063.95 515.511 1065.1 516.344 1066.24 517.17C1064.52 516.733 1062.81 516.296 1061.09 515.858C1059.9 515.095 1058.7 514.331 1057.5 513.567C1059.27 513.935 1061.04 514.303 1062.8 514.678L1062.81 514.685ZM1064.54 515.053C1066.05 515.379 1067.57 515.699 1069.08 516.025L1070.06 516.24C1071.2 517.163 1072.34 518.101 1073.47 519.031C1071.69 518.566 1069.91 518.107 1068.13 517.656C1066.94 516.788 1065.75 515.921 1064.55 515.06L1064.54 515.053ZM1074.74 520.079C1075.84 520.975 1076.93 521.877 1078.02 522.786C1076.39 522.287 1074.75 521.787 1073.11 521.294C1071.95 520.447 1070.81 519.614 1069.65 518.774C1071.35 519.211 1073.05 519.649 1074.75 520.086L1074.74 520.079ZM1076.39 520.516C1078.16 520.982 1079.93 521.44 1081.69 521.912C1082.67 522.814 1083.64 523.724 1084.62 524.633L1084.93 524.925L1079.81 523.335L1079.75 523.286C1078.63 522.363 1077.51 521.44 1076.39 520.523V520.516ZM1086.1 526.015L1089.18 528.903C1087.61 528.333 1086.04 527.771 1084.47 527.202L1084.29 527.049C1083.26 526.195 1082.23 525.341 1081.21 524.494L1086.1 526.015ZM1087.69 526.514C1089.37 527.042 1091.07 527.577 1092.75 528.111C1093.77 529.173 1094.77 530.242 1095.78 531.305L1095.27 531.117C1093.82 530.583 1092.36 530.048 1090.9 529.52L1087.69 526.514H1087.69ZM1094.99 531.77L1096.85 532.45C1097.82 533.477 1098.79 534.519 1099.77 535.553C1098.27 534.921 1096.79 534.29 1095.3 533.672C1094.34 532.762 1093.38 531.86 1092.42 530.951L1092.2 530.742C1093.13 531.082 1094.06 531.423 1094.99 531.763V531.77ZM1098.38 533.012C1100 533.609 1101.61 534.206 1103.22 534.81C1104.17 535.949 1105.13 537.087 1106.07 538.226C1104.52 537.559 1102.97 536.9 1101.41 536.24C1100.4 535.157 1099.39 534.081 1098.38 533.005V533.012ZM1107.06 539.413L1107.43 539.85C1108.22 540.801 1109 541.753 1109.79 542.704L1109.45 542.537C1108.13 541.898 1106.82 541.26 1105.51 540.635C1104.54 539.594 1103.57 538.552 1102.59 537.518C1104.08 538.149 1105.57 538.781 1107.05 539.413H1107.06ZM1108.53 540.045C1109.75 540.565 1110.96 541.086 1112.17 541.614L1113.11 542.016L1113.96 543.169C1114.56 543.988 1115.17 544.807 1115.77 545.626C1114.3 544.904 1112.83 544.189 1111.37 543.474C1110.43 542.329 1109.48 541.19 1108.53 540.045ZM1116.49 546.765L1116.67 546.855C1117.52 548.014 1118.37 549.174 1119.22 550.34C1117.87 549.59 1116.53 548.84 1115.19 548.098L1114.98 547.841C1114.14 546.82 1113.31 545.807 1112.47 544.793C1113.81 545.453 1115.15 546.112 1116.5 546.772L1116.49 546.765ZM1118.8 547.119L1117.19 546.327C1116.32 545.147 1115.45 543.96 1114.58 542.78L1114.45 542.599C1116.02 543.28 1117.6 543.967 1119.17 544.661C1119.93 545.841 1120.7 547.022 1121.46 548.202L1121.7 548.563C1120.73 548.084 1119.76 547.598 1118.79 547.119H1118.8ZM1113.61 541.468L1110.81 537.67C1112.49 538.302 1114.18 538.941 1115.85 539.58L1118.47 543.578C1116.85 542.87 1115.23 542.162 1113.61 541.461L1113.61 541.468ZM1110.04 536.629C1109.09 535.345 1108.13 534.061 1107.17 532.776C1108.97 533.359 1110.75 533.949 1112.53 534.547C1113.43 535.893 1114.31 537.24 1115.2 538.587C1113.48 537.934 1111.76 537.275 1110.04 536.629ZM1106.45 531.797C1105.47 530.492 1104.49 529.18 1103.51 527.875C1105.38 528.403 1107.26 528.93 1109.19 529.486C1110.1 530.853 1111.01 532.228 1111.91 533.602C1110.09 532.998 1108.27 532.394 1106.45 531.797ZM1102.82 526.959C1101.83 525.647 1100.84 524.335 1099.85 523.029C1101.85 523.502 1103.85 523.981 1105.85 524.466C1106.77 525.841 1107.68 527.216 1108.6 528.59C1106.67 528.042 1104.74 527.493 1102.82 526.959ZM1099.2 522.155C1098.21 520.836 1097.21 519.517 1096.2 518.198C1098.3 518.607 1100.39 519.024 1102.48 519.454C1103.42 520.843 1104.35 522.224 1105.28 523.62C1103.25 523.127 1101.23 522.641 1099.2 522.162V522.155ZM1095.56 517.358C1094.55 516.025 1093.53 514.699 1092.51 513.373C1094.71 513.72 1096.91 514.081 1099.11 514.442C1100.05 515.83 1100.99 517.233 1101.93 518.628C1099.81 518.198 1097.69 517.774 1095.57 517.358H1095.56ZM1091.9 512.568C1091.05 511.457 1090.2 510.353 1089.35 509.249L1088.83 508.562C1091.12 508.847 1093.41 509.138 1095.69 509.437C1096.65 510.839 1097.61 512.241 1098.57 513.651C1096.35 513.283 1094.13 512.922 1091.9 512.568ZM1088.23 507.784C1087.64 507.028 1087.06 506.278 1086.47 505.521C1086.01 504.938 1085.56 504.348 1085.11 503.765C1087.49 503.98 1089.88 504.202 1092.26 504.431C1093.23 505.841 1094.19 507.25 1095.16 508.659C1092.85 508.354 1090.53 508.062 1088.22 507.778L1088.23 507.784ZM1085.86 505.931C1086.31 506.507 1086.76 507.083 1087.21 507.66C1084.9 507.368 1082.58 507.09 1080.27 506.819C1079.17 505.563 1078.07 504.306 1076.96 503.05C1079.35 503.251 1081.73 503.459 1084.12 503.682C1084.7 504.431 1085.28 505.181 1085.86 505.938V505.931ZM1079.2 506.695C1076.89 506.417 1074.59 506.146 1072.28 505.889L1072.03 505.632C1070.95 504.542 1069.87 503.453 1068.79 502.363C1071.17 502.55 1073.54 502.744 1075.92 502.96C1077.02 504.202 1078.11 505.452 1079.2 506.695ZM1071.13 505.757C1068.84 505.494 1066.55 505.237 1064.25 504.994C1063.04 503.897 1061.82 502.807 1060.59 501.717C1062.96 501.891 1065.31 502.071 1067.67 502.272C1068.84 503.432 1069.98 504.591 1071.13 505.757ZM1063.04 504.869C1060.76 504.626 1058.48 504.376 1056.19 504.147C1054.93 503.14 1053.65 502.127 1052.38 501.12C1054.72 501.287 1057.07 501.453 1059.42 501.634C1060.62 502.71 1061.83 503.793 1063.03 504.869H1063.04ZM1054.87 504.008C1052.62 503.772 1050.36 503.543 1048.1 503.328C1046.78 502.397 1045.46 501.474 1044.14 500.551C1046.47 500.703 1048.79 500.856 1051.11 501.023C1052.37 502.016 1053.62 503.015 1054.87 504.008ZM1046.66 503.189C1044.44 502.967 1042.21 502.751 1039.97 502.543C1038.62 501.696 1037.25 500.863 1035.89 500.03C1038.18 500.169 1040.48 500.308 1042.77 500.454C1044.07 501.363 1045.37 502.272 1046.66 503.189ZM1038.38 502.397C1036.19 502.196 1034 501.988 1031.81 501.8C1030.42 501.044 1029.03 500.294 1027.64 499.544C1029.89 499.669 1032.14 499.801 1034.38 499.94C1035.72 500.752 1037.05 501.578 1038.39 502.404L1038.38 502.397ZM1030.04 501.641C1027.9 501.453 1025.75 501.266 1023.6 501.092L1023.55 501.071C1022.15 500.412 1020.76 499.752 1019.36 499.093C1021.56 499.204 1023.76 499.315 1025.97 499.44C1027.33 500.169 1028.68 500.905 1030.04 501.641ZM1021.6 500.933C1019.51 500.759 1017.43 500.585 1015.34 500.419C1013.93 499.836 1012.52 499.266 1011.1 498.69C1013.23 498.787 1015.36 498.892 1017.49 498.996C1018.86 499.634 1020.22 500.28 1021.59 500.926L1021.6 500.933ZM1015.16 501.099C1016.45 501.62 1017.73 502.154 1019 502.689C1017.2 502.481 1015.38 502.279 1013.57 502.078C1012.25 501.606 1010.93 501.141 1009.61 500.676C1011.46 500.815 1013.3 500.953 1015.16 501.099H1015.16ZM1021.33 503.647C1022.49 504.126 1023.64 504.612 1024.8 505.091C1023.19 504.848 1021.58 504.605 1019.98 504.369C1018.79 503.938 1017.61 503.522 1016.42 503.099C1018.06 503.279 1019.69 503.453 1021.33 503.647ZM1023.86 503.938C1025.66 504.147 1027.46 504.348 1029.26 504.563C1030.49 505.146 1031.71 505.743 1032.94 506.334C1031.18 506.056 1029.43 505.785 1027.66 505.514C1026.4 504.987 1025.13 504.459 1023.86 503.932V503.938ZM1035.09 507.375C1036.22 507.916 1037.34 508.465 1038.45 509.006C1036.89 508.701 1035.33 508.395 1033.77 508.09C1032.62 507.604 1031.46 507.118 1030.3 506.632C1031.9 506.875 1033.5 507.125 1035.09 507.375ZM1037.49 507.757C1039.23 508.034 1040.96 508.305 1042.7 508.59C1043.88 509.242 1045.06 509.902 1046.24 510.561C1044.56 510.221 1042.88 509.888 1041.19 509.548H1041.15C1039.93 508.944 1038.72 508.354 1037.49 507.757ZM1048.23 511.665C1049.32 512.269 1050.4 512.88 1051.48 513.491C1049.96 513.123 1048.44 512.748 1046.93 512.38C1045.82 511.832 1044.7 511.283 1043.58 510.735C1045.13 511.04 1046.68 511.346 1048.22 511.665H1048.23ZM1050.51 512.13C1052.19 512.47 1053.87 512.811 1055.54 513.165C1056.67 513.887 1057.81 514.609 1058.93 515.331C1057.3 514.921 1055.67 514.518 1054.03 514.116C1052.86 513.449 1051.69 512.797 1050.51 512.137V512.13ZM1060.77 516.504C1061.83 517.177 1062.88 517.858 1063.93 518.538C1062.48 518.107 1061.03 517.677 1059.58 517.254C1058.49 516.629 1057.39 516.011 1056.29 515.393C1057.78 515.761 1059.28 516.129 1060.77 516.504H1060.77ZM1062.93 517.052C1064.55 517.462 1066.16 517.865 1067.77 518.281C1068.87 519.072 1069.95 519.871 1071.04 520.662C1069.48 520.19 1067.91 519.718 1066.35 519.253C1065.21 518.517 1064.07 517.781 1062.93 517.052ZM1072.74 521.912C1073.74 522.641 1074.74 523.377 1075.73 524.112C1074.34 523.62 1072.95 523.134 1071.56 522.648C1070.51 521.967 1069.48 521.294 1068.44 520.621C1069.88 521.051 1071.31 521.481 1072.74 521.919V521.912ZM1074.8 522.537C1076.34 523.002 1077.88 523.474 1079.42 523.939C1080.45 524.793 1081.48 525.654 1082.5 526.507C1081.01 525.973 1079.52 525.445 1078.03 524.918C1076.95 524.119 1075.87 523.328 1074.79 522.537H1074.8ZM1084.08 527.806C1085.03 528.597 1085.98 529.395 1086.93 530.194C1086.43 529.985 1085.92 529.777 1085.41 529.569L1082.98 528.576C1081.98 527.833 1080.97 527.091 1079.97 526.348C1081.34 526.834 1082.71 527.32 1084.08 527.806ZM1086.04 528.514C1087.51 529.048 1088.99 529.576 1090.47 530.117L1091.88 531.443C1092.39 531.929 1092.91 532.408 1093.42 532.894C1091.99 532.297 1090.56 531.7 1089.13 531.103C1088.1 530.242 1087.07 529.382 1086.04 528.521L1086.04 528.514ZM1094.86 534.255C1095.77 535.109 1096.67 535.97 1097.57 536.824C1096.31 536.22 1095.06 535.623 1093.79 535.026C1092.84 534.22 1091.88 533.415 1090.92 532.617C1092.23 533.165 1093.54 533.707 1094.86 534.262V534.255ZM1096.74 535.046C1098.15 535.636 1099.56 536.227 1100.96 536.817C1101.88 537.802 1102.8 538.781 1103.72 539.767C1102.37 539.114 1101.02 538.469 1099.68 537.823C1098.71 536.893 1097.73 535.97 1096.74 535.039V535.046ZM1105.04 541.19C1105.89 542.1 1106.74 543.009 1107.59 543.918C1107.31 543.766 1107.03 543.613 1106.76 543.467C1105.85 542.967 1104.92 542.468 1104.01 541.961C1103.12 541.107 1102.22 540.253 1101.32 539.399C1102.56 539.996 1103.81 540.586 1105.04 541.19ZM1106.84 542.065C1107.59 542.426 1108.35 542.794 1109.1 543.155L1110.88 544.016C1111.74 545.057 1112.59 546.098 1113.46 547.147C1112.17 546.438 1110.88 545.73 1109.6 545.022C1108.69 544.03 1107.77 543.044 1106.84 542.058V542.065ZM1114.67 548.625C1115.47 549.597 1116.27 550.576 1117.06 551.548C1115.93 550.84 1114.8 550.139 1113.67 549.437C1112.82 548.514 1111.96 547.598 1111.11 546.674C1112.29 547.327 1113.48 547.98 1114.66 548.632L1114.67 548.625ZM1116.4 549.59C1117.67 550.291 1118.94 550.992 1120.2 551.708C1120.91 552.672 1121.61 553.638 1122.31 554.609L1122.61 555.019C1121.4 554.262 1120.2 553.499 1118.99 552.749C1118.14 551.694 1117.27 550.645 1116.4 549.59ZM1123.73 556.553C1124.46 557.574 1125.2 558.594 1125.93 559.608C1124.88 558.858 1123.82 558.108 1122.76 557.365C1121.97 556.393 1121.18 555.422 1120.39 554.457C1121.51 555.151 1122.62 555.845 1123.74 556.553H1123.73ZM1125.39 557.601C1126.5 558.303 1127.62 559.011 1128.73 559.712L1128.99 559.872C1129.73 561.031 1130.47 562.19 1131.2 563.35C1130.16 562.607 1129.11 561.857 1128.06 561.114L1127.77 560.906C1126.98 559.802 1126.18 558.698 1125.39 557.594V557.601ZM1133.47 561.878L1133.17 561.69C1131.96 560.92 1130.75 560.156 1129.55 559.393C1128.73 558.122 1127.92 556.852 1127.1 555.574C1128.48 556.345 1129.85 557.122 1131.22 557.9C1131.97 559.226 1132.72 560.552 1133.47 561.878ZM1130.54 556.699C1129.15 555.914 1127.77 555.13 1126.38 554.346L1126.29 554.29L1126.23 554.2C1125.59 553.214 1124.95 552.228 1124.31 551.242L1123.74 550.368C1125.23 551.104 1126.71 551.846 1128.2 552.596C1128.98 553.964 1129.76 555.331 1130.53 556.699H1130.54ZM1127.57 551.492C1126.04 550.729 1124.52 549.958 1122.99 549.201L1122.11 547.841C1121.54 546.959 1120.97 546.077 1120.39 545.196C1121.99 545.89 1123.58 546.591 1125.17 547.299C1125.97 548.695 1126.77 550.09 1127.56 551.492H1127.57ZM1124.58 546.272C1122.96 545.55 1121.33 544.835 1119.7 544.12L1117.03 540.038C1117.89 540.371 1118.75 540.704 1119.61 541.037L1122.12 542.009C1122.94 543.426 1123.77 544.856 1124.58 546.279L1124.58 546.272ZM1121.57 541.037L1119.91 540.392C1118.73 539.941 1117.55 539.482 1116.37 539.031C1115.47 537.657 1114.57 536.289 1113.67 534.921C1114.78 535.289 1115.89 535.657 1117 536.032L1119.08 536.726C1119.91 538.156 1120.74 539.594 1121.58 541.031L1121.57 541.037ZM1118.54 535.81L1117.25 535.38C1115.85 534.908 1114.45 534.442 1113.04 533.977C1112.13 532.582 1111.21 531.193 1110.28 529.798C1112.19 530.346 1114.09 530.895 1116 531.45C1116.85 532.901 1117.7 534.352 1118.54 535.81ZM1113.43 527.063C1114.12 528.236 1114.81 529.402 1115.49 530.576C1113.58 530.02 1111.66 529.465 1109.69 528.903C1108.77 527.507 1107.84 526.119 1106.91 524.73C1108.91 525.216 1110.91 525.702 1112.92 526.202L1113.43 527.063H1113.43ZM1110.91 522.814C1111.42 523.661 1111.92 524.515 1112.41 525.362C1110.38 524.855 1108.36 524.355 1106.33 523.869C1105.39 522.46 1104.44 521.058 1103.5 519.662C1105.61 520.086 1107.71 520.516 1109.81 520.954L1110.91 522.821V522.814ZM1109.33 520.135C1107.21 519.697 1105.08 519.26 1102.94 518.829C1102 517.42 1101.05 516.011 1100.09 514.609C1102.3 514.97 1104.49 515.331 1106.69 515.712C1107.56 517.184 1108.45 518.663 1109.33 520.135H1109.33ZM1106.22 514.928C1104 514.546 1101.79 514.171 1099.56 513.817C1098.6 512.401 1097.64 510.985 1096.67 509.569C1098.96 509.86 1101.24 510.166 1103.53 510.471L1106.22 514.928ZM1100.37 505.244L1103.06 509.707C1100.76 509.395 1098.45 509.09 1096.14 508.798C1095.17 507.375 1094.19 505.952 1093.21 504.536C1095.6 504.765 1097.98 505.001 1100.36 505.244H1100.37ZM1097.21 500.037C1097.95 501.252 1098.69 502.46 1099.43 503.675L1099.92 504.501C1097.52 504.258 1095.11 504.015 1092.7 503.786C1091.72 502.363 1090.74 500.946 1089.76 499.53C1092.24 499.697 1094.73 499.863 1097.21 500.044V500.037ZM1088.83 499.461C1089.81 500.87 1090.78 502.279 1091.75 503.696C1089.34 503.466 1086.94 503.237 1084.52 503.022L1081.38 499.003C1083.86 499.155 1086.34 499.308 1088.83 499.468V499.461ZM1080.41 498.933L1083.53 502.925C1081.12 502.703 1078.71 502.495 1076.3 502.286C1075.2 501.023 1074.08 499.766 1072.97 498.51C1075.45 498.642 1077.93 498.78 1080.4 498.933H1080.41ZM1071.95 498.461C1073.06 499.711 1074.16 500.96 1075.25 502.21C1072.85 502.002 1070.44 501.8 1068.03 501.606C1066.87 500.426 1065.69 499.246 1064.52 498.065C1066.99 498.19 1069.47 498.315 1071.95 498.461H1071.95ZM1063.44 498.01C1064.61 499.176 1065.77 500.349 1066.92 501.516C1064.53 501.321 1062.14 501.127 1059.75 500.953C1058.52 499.85 1057.29 498.753 1056.05 497.656C1058.52 497.767 1060.98 497.878 1063.44 498.003V498.01ZM1054.91 497.607H1054.92C1056.13 498.697 1057.36 499.78 1058.57 500.87C1056.19 500.69 1053.8 500.509 1051.41 500.342L1051.27 500.231C1050.03 499.253 1048.79 498.274 1047.54 497.302C1050 497.392 1052.45 497.496 1054.9 497.607H1054.91ZM1046.33 497.253C1047.6 498.246 1048.88 499.253 1050.14 500.259C1047.78 500.093 1045.41 499.926 1043.04 499.773L1042.85 499.641C1041.58 498.753 1040.3 497.864 1039.02 496.982C1041.46 497.066 1043.89 497.156 1046.32 497.253H1046.33ZM1037.71 496.934C1039.04 497.85 1040.36 498.767 1041.68 499.683C1039.33 499.53 1036.98 499.378 1034.63 499.246C1033.25 498.385 1031.86 497.545 1030.47 496.698C1032.89 496.767 1035.3 496.844 1037.71 496.927V496.934ZM1029.04 496.663C1030.41 497.489 1031.76 498.329 1033.13 499.169C1030.82 499.03 1028.51 498.892 1026.2 498.767C1024.78 498.003 1023.35 497.239 1021.93 496.483C1024.3 496.538 1026.67 496.601 1029.04 496.67V496.663ZM1020.34 496.434C1021.74 497.177 1023.13 497.927 1024.53 498.676C1022.25 498.551 1019.97 498.433 1017.69 498.315C1016.24 497.628 1014.79 496.955 1013.33 496.281C1015.67 496.33 1018.01 496.378 1020.34 496.434ZM1011.59 496.247C1013.01 496.899 1014.42 497.559 1015.84 498.225C1013.61 498.114 1011.39 498.003 1009.17 497.906C1007.7 497.309 1006.24 496.726 1004.78 496.135C1007.05 496.17 1009.32 496.205 1011.59 496.247ZM1002.83 496.101C1004.25 496.67 1005.66 497.239 1007.07 497.816C1004.93 497.718 1002.79 497.628 1000.65 497.545C999.185 497.038 997.716 496.531 996.246 496.031C998.443 496.052 1000.63 496.073 1002.83 496.101ZM994.019 496.004C995.421 496.483 996.823 496.969 998.218 497.448C996.164 497.364 994.109 497.281 992.054 497.212C990.615 496.788 989.168 496.372 987.728 495.955C989.828 495.969 991.919 495.976 994.019 495.997V496.004ZM985.156 495.941C986.513 496.33 987.863 496.726 989.213 497.114C987.278 497.045 985.351 496.975 983.424 496.92C982.037 496.587 980.642 496.254 979.248 495.92C981.22 495.92 983.192 495.92 985.156 495.941ZM957.286 496.295C956.558 496.212 955.831 496.135 955.104 496.059C956.206 496.045 957.301 496.031 958.403 496.017C959.168 496.129 959.932 496.247 960.705 496.358C959.565 496.337 958.425 496.309 957.293 496.295H957.286ZM965.196 497.184C965.039 497.163 964.874 497.149 964.716 497.128C965.159 497.135 965.601 497.142 966.044 497.156C966.283 497.191 966.531 497.232 966.771 497.267C966.246 497.239 965.721 497.212 965.204 497.184H965.196ZM966.111 496.462L965.909 496.434C964.904 496.281 963.899 496.135 962.894 495.983C964.386 495.969 965.886 495.955 967.378 495.948L968.068 496.08C968.923 496.247 969.77 496.406 970.625 496.573C969.125 496.538 967.626 496.496 966.118 496.462H966.111ZM976.218 495.913C977.493 496.219 978.76 496.524 980.028 496.823C978.295 496.774 976.563 496.719 974.831 496.677C973.549 496.427 972.259 496.184 970.977 495.934C972.724 495.927 974.471 495.913 976.218 495.913ZM973.729 497.635C972.979 497.517 972.229 497.406 971.48 497.288C972.567 497.316 973.662 497.337 974.749 497.371C975.521 497.524 976.293 497.677 977.066 497.829C975.956 497.767 974.846 497.698 973.737 497.642L973.729 497.635ZM981.43 498.857C981.145 498.808 980.852 498.767 980.567 498.718C981.055 498.746 981.542 498.774 982.029 498.801C982.367 498.871 982.697 498.94 983.034 499.003C982.502 498.954 981.97 498.898 981.437 498.857H981.43ZM982.127 498.114C981.07 497.899 980.005 497.697 978.948 497.489C980.402 497.531 981.865 497.566 983.319 497.614C984.376 497.871 985.434 498.135 986.491 498.392C985.036 498.301 983.582 498.204 982.127 498.121V498.114ZM991.935 497.906C993.157 498.26 994.379 498.621 995.609 498.982C993.884 498.864 992.167 498.746 990.442 498.642C989.205 498.329 987.968 498.031 986.723 497.732C988.463 497.788 990.195 497.843 991.935 497.906ZM989.565 499.62C988.755 499.454 987.945 499.294 987.136 499.128C988.193 499.197 989.258 499.253 990.315 499.329C991.125 499.523 991.919 499.732 992.729 499.926C991.672 499.822 990.622 499.718 989.565 499.62ZM996.898 501.127C996.606 501.064 996.313 501.009 996.021 500.946C996.463 500.988 996.906 501.03 997.356 501.078C997.686 501.162 998.008 501.245 998.33 501.321C997.858 501.259 997.378 501.189 996.906 501.127H996.898ZM997.483 500.391C996.411 500.12 995.331 499.857 994.259 499.593C995.729 499.69 997.198 499.78 998.66 499.884C999.725 500.197 1000.8 500.523 1001.86 500.842C1000.4 500.69 998.945 500.537 997.483 500.391ZM1006.94 500.467C1008.15 500.891 1009.35 501.321 1010.56 501.752C1008.9 501.571 1007.25 501.391 1005.58 501.217C1004.34 500.842 1003.11 500.481 1001.87 500.106C1003.56 500.224 1005.25 500.342 1006.94 500.467ZM1004.55 502.168C1003.75 501.967 1002.95 501.766 1002.15 501.564C1003.23 501.675 1004.33 501.786 1005.42 501.897C1006.21 502.134 1007.01 502.383 1007.8 502.626C1006.71 502.474 1005.63 502.314 1004.54 502.168H1004.55ZM1011.41 503.938C1011.41 503.938 1011.37 503.932 1011.34 503.925L1010.45 503.696C1010.99 503.772 1011.53 503.848 1012.08 503.925C1012.44 504.036 1012.79 504.147 1013.15 504.251C1012.58 504.147 1011.99 504.043 1011.41 503.938ZM1012.25 503.244L1012.19 503.223C1011.18 502.911 1010.16 502.606 1009.14 502.293C1010.56 502.446 1011.98 502.592 1013.39 502.751C1014.41 503.112 1015.44 503.48 1016.46 503.848C1015.06 503.647 1013.66 503.439 1012.25 503.237V503.244ZM1018.94 505.306C1018.16 505.063 1017.37 504.82 1016.57 504.577C1017.64 504.73 1018.71 504.883 1019.78 505.042C1020.57 505.327 1021.36 505.618 1022.14 505.903C1021.08 505.702 1020.01 505.5 1018.94 505.306H1018.94ZM1027.45 506.188C1028.47 506.611 1029.49 507.035 1030.5 507.472C1029.13 507.208 1027.75 506.944 1026.37 506.688C1025.35 506.313 1024.31 505.938 1023.28 505.563C1024.67 505.771 1026.07 505.98 1027.45 506.188ZM1025.59 507.382C1025.24 507.271 1024.89 507.167 1024.54 507.056C1025.08 507.16 1025.61 507.25 1026.15 507.354C1026.53 507.493 1026.91 507.632 1027.28 507.771C1026.71 507.639 1026.15 507.507 1025.58 507.382H1025.59ZM1032.7 509.013C1031.92 508.722 1031.13 508.437 1030.35 508.152C1031.41 508.354 1032.48 508.555 1033.53 508.756C1033.53 508.756 1033.53 508.756 1033.54 508.756C1034.32 509.09 1035.09 509.423 1035.87 509.756C1034.82 509.513 1033.76 509.263 1032.7 509.013ZM1040.9 510.193C1041.87 510.672 1042.85 511.151 1043.82 511.63C1042.49 511.311 1041.15 510.992 1039.82 510.672C1038.83 510.249 1037.84 509.825 1036.83 509.395C1038.19 509.659 1039.54 509.923 1040.9 510.186V510.193ZM1039.16 511.415C1038.74 511.256 1038.31 511.103 1037.88 510.943C1038.45 511.075 1039 511.2 1039.56 511.332C1040 511.519 1040.42 511.707 1040.86 511.887C1040.29 511.728 1039.73 511.568 1039.16 511.408V511.415ZM1045.95 513.317L1044.8 512.824C1044.39 512.644 1043.98 512.47 1043.57 512.29C1044.59 512.533 1045.62 512.776 1046.66 513.033C1047.44 513.422 1048.22 513.81 1049.01 514.199C1047.99 513.907 1046.97 513.609 1045.95 513.324V513.317ZM1053.73 514.761C1054.7 515.303 1055.67 515.858 1056.63 516.4C1055.36 516.032 1054.1 515.664 1052.84 515.303L1052.77 515.282C1051.78 514.782 1050.77 514.289 1049.78 513.796C1051.09 514.116 1052.41 514.435 1053.73 514.761ZM1051.93 515.942C1051.54 515.768 1051.15 515.601 1050.76 515.428C1051.34 515.594 1051.92 515.754 1052.49 515.921C1052.9 516.129 1053.31 516.337 1053.73 516.539C1053.13 516.337 1052.53 516.136 1051.93 515.935V515.942ZM1058.51 518.149C1057.75 517.767 1056.99 517.385 1056.23 517.004C1057.24 517.295 1058.26 517.587 1059.28 517.885C1060.03 518.316 1060.77 518.746 1061.53 519.177C1060.53 518.836 1059.52 518.489 1058.52 518.149H1058.51ZM1066.02 519.885C1066.94 520.475 1067.85 521.079 1068.76 521.669C1067.53 521.238 1066.3 520.808 1065.06 520.384C1064.12 519.843 1063.17 519.302 1062.22 518.76C1063.49 519.135 1064.75 519.503 1066.01 519.885H1066.02ZM1064.27 521.072C1063.84 520.85 1063.41 520.634 1062.98 520.419C1063.56 520.621 1064.15 520.815 1064.73 521.016C1065.16 521.266 1065.6 521.523 1066.04 521.773C1065.45 521.537 1064.85 521.301 1064.26 521.072H1064.27ZM1070.56 523.564C1069.8 523.127 1069.05 522.689 1068.29 522.252C1069.26 522.592 1070.24 522.925 1071.2 523.266C1071.94 523.745 1072.67 524.224 1073.41 524.709C1072.46 524.328 1071.51 523.946 1070.56 523.564ZM1077.66 525.529C1078.55 526.181 1079.42 526.834 1080.3 527.486C1079.12 527.007 1077.95 526.528 1076.77 526.056C1075.85 525.452 1074.92 524.855 1074.01 524.251C1075.22 524.675 1076.45 525.098 1077.66 525.536V525.529ZM1076.04 526.757C1075.6 526.494 1075.15 526.237 1074.7 525.973C1075.26 526.202 1075.83 526.424 1076.39 526.653C1076.84 526.945 1077.29 527.243 1077.73 527.535C1077.17 527.278 1076.6 527.014 1076.03 526.757H1076.04ZM1082 529.506C1081.25 529.007 1080.49 528.514 1079.74 528.014C1079.91 528.083 1080.09 528.153 1080.26 528.229L1082.58 529.173C1083.29 529.701 1084 530.235 1084.72 530.77C1083.81 530.346 1082.91 529.923 1082 529.506ZM1088.71 531.686C1089.57 532.401 1090.41 533.116 1091.26 533.825C1090.14 533.297 1089.01 532.762 1087.88 532.235C1087 531.568 1086.1 530.909 1085.22 530.242C1086.39 530.721 1087.55 531.2 1088.71 531.679V531.686ZM1087.18 532.957C1086.75 532.665 1086.31 532.374 1085.87 532.082C1086.4 532.332 1086.94 532.575 1087.47 532.825C1087.9 533.144 1088.32 533.47 1088.75 533.79C1088.23 533.512 1087.7 533.234 1087.18 532.957H1087.18ZM1092.81 535.942L1091.75 535.144C1091.39 534.873 1091.02 534.602 1090.66 534.324C1091.56 534.748 1092.46 535.171 1093.36 535.595L1094.99 536.976C1095.12 537.094 1095.27 537.212 1095.4 537.323C1094.54 536.858 1093.68 536.393 1092.81 535.935V535.942ZM1099.22 538.392C1100.01 539.149 1100.81 539.906 1101.6 540.669L1098.4 538.941C1097.57 538.226 1096.73 537.518 1095.89 536.81C1097 537.337 1098.11 537.865 1099.22 538.392ZM1097.66 539.628C1097.24 539.309 1096.81 538.983 1096.39 538.663C1096.92 538.941 1097.43 539.219 1097.96 539.503C1098.37 539.85 1098.78 540.204 1099.2 540.558C1098.69 540.253 1098.18 539.934 1097.67 539.628H1097.66ZM1103 542.87L1102.91 542.794C1102.26 542.232 1101.61 541.676 1100.95 541.114L1103.54 542.509C1104.19 543.134 1104.84 543.766 1105.49 544.391C1104.66 543.884 1103.84 543.37 1103 542.863V542.87ZM1106.37 544.064C1107.29 544.564 1108.2 545.064 1109.11 545.564C1109.86 546.376 1110.61 547.195 1111.37 548.014C1110.37 547.39 1109.36 546.765 1108.35 546.154L1107.83 545.647C1107.2 545.043 1106.57 544.439 1105.94 543.835C1106.09 543.911 1106.23 543.988 1106.37 544.071V544.064ZM1107.56 546.792C1107.16 546.445 1106.76 546.112 1106.36 545.765C1106.87 546.07 1107.37 546.376 1107.86 546.688C1108.25 547.056 1108.63 547.431 1109.01 547.799C1108.52 547.466 1108.04 547.126 1107.55 546.792H1107.56ZM1114.25 551.416L1112.63 550.291C1112 549.673 1111.36 549.063 1110.73 548.445C1111.28 548.792 1111.84 549.132 1112.4 549.472L1113.17 549.951C1113.78 550.611 1114.38 551.263 1114.98 551.916C1114.74 551.749 1114.5 551.583 1114.25 551.409V551.416ZM1118.47 553.256C1119.17 554.116 1119.87 554.97 1120.56 555.831L1117.71 553.832C1116.97 553.02 1116.22 552.207 1115.47 551.395C1116.46 552.013 1117.46 552.631 1118.47 553.263V553.256ZM1116.98 554.519C1116.58 554.123 1116.18 553.735 1115.77 553.346C1116.25 553.679 1116.73 554.005 1117.2 554.339L1118.32 555.567C1117.87 555.22 1117.42 554.866 1116.98 554.519ZM1121.74 558.247L1119.92 556.248L1122.23 557.865C1122.81 558.58 1123.38 559.288 1123.96 560.003L1121.74 558.247ZM1127.22 561.392C1127.88 562.315 1128.54 563.238 1129.21 564.162L1126.57 562.072C1126.57 562.072 1126.56 562.058 1126.56 562.051C1125.84 561.17 1125.13 560.295 1124.42 559.413C1125.35 560.073 1126.29 560.732 1127.22 561.392ZM1125.77 562.683C1125.41 562.287 1125.05 561.892 1124.69 561.496L1126.02 562.551C1126.36 562.968 1126.7 563.384 1127.04 563.801C1126.62 563.426 1126.2 563.051 1125.77 562.676V562.683ZM1130.3 566.703C1129.74 566.001 1129.18 565.3 1128.61 564.599L1130.74 566.286C1131.27 567.022 1131.8 567.758 1132.32 568.501C1131.65 567.904 1130.98 567.3 1130.3 566.703ZM1131.31 565.821C1130.56 564.78 1129.81 563.738 1129.07 562.704C1130.12 563.454 1131.17 564.203 1132.23 564.953C1132.92 566.029 1133.6 567.112 1134.29 568.188C1133.7 567.716 1133.12 567.251 1132.53 566.779L1131.32 565.821H1131.31ZM1135.46 570.049C1136.06 571 1136.66 571.958 1137.27 572.916C1136.45 572.173 1135.62 571.437 1134.8 570.694C1134.14 569.778 1133.48 568.855 1132.82 567.938C1133.7 568.639 1134.58 569.341 1135.46 570.049ZM1134.02 571.34C1133.69 570.923 1133.35 570.5 1133.01 570.083C1133.41 570.438 1133.81 570.798 1134.21 571.153C1134.53 571.59 1134.84 572.034 1135.16 572.479L1134.02 571.34ZM1138.3 575.616C1138.3 575.616 1138.29 575.602 1138.28 575.602C1137.75 574.86 1137.23 574.117 1136.69 573.367C1136.99 573.631 1137.29 573.895 1137.59 574.165L1138.69 575.158C1139.18 575.929 1139.66 576.699 1140.13 577.463L1138.3 575.616ZM1143.13 579.143C1143.68 580.136 1144.23 581.128 1144.78 582.128C1144.01 581.358 1143.25 580.58 1142.48 579.809C1141.89 578.858 1141.28 577.9 1140.68 576.949C1141.5 577.678 1142.32 578.407 1143.13 579.143ZM1141.76 580.511C1141.44 580.052 1141.11 579.587 1140.79 579.129L1141.88 580.226C1142.18 580.698 1142.47 581.17 1142.77 581.642C1142.44 581.267 1142.11 580.885 1141.77 580.511H1141.76ZM1146.02 585.322L1145.71 584.974L1144.96 583.76C1144.72 583.378 1144.48 582.996 1144.24 582.607C1144.37 582.746 1144.51 582.878 1144.64 583.017L1146.07 584.461C1146.52 585.273 1146.97 586.085 1147.42 586.904C1146.95 586.377 1146.49 585.849 1146.02 585.328V585.322ZM1148.89 590.049C1148.61 589.612 1148.34 589.167 1148.06 588.73C1148.38 589.098 1148.71 589.466 1149.04 589.834L1149.24 590.209C1149.42 590.535 1149.6 590.861 1149.78 591.188L1148.89 590.049Z" fill="#0043CE"/>
</svg>
